<svg id="Слой_1" data-name="Слой 1" xmlns="http://www.w3.org/2000/svg" viewBox="0 0 32 32"><defs><style>.cls-1{fill:#bcc7d8;}.cls-2{fill:#0593ff;}.cls-3{fill:#d8e1ef;}</style></defs><path class="cls-1" d="M27,28a1,1,0,0,1-.71-.29l-8-8a1,1,0,0,1,1.42-1.42l8,8a1,1,0,0,1,0,1.41h0A1,1,0,0,1,27,28Z"/><path class="cls-2" d="M12,9a1,1,0,0,1-1-1V5a1,1,0,0,1,2,0V8A1,1,0,0,1,12,9Z"/><path class="cls-2" d="M8.88,9.88a1,1,0,0,1-.71-.29L6.05,7.46A1,1,0,0,1,7.46,6.05L9.59,8.17a1,1,0,0,1,0,1.41h0A1,1,0,0,1,8.88,9.88Z"/><path class="cls-2" d="M8,13H5a1,1,0,0,1,0-2H8a1,1,0,0,1,0,2Z"/><path class="cls-2" d="M6.76,18.24A1,1,0,0,1,6.05,18a1,1,0,0,1,0-1.41l2.12-2.13a1,1,0,0,1,1.42,1.42L7.46,18A1,1,0,0,1,6.76,18.24Z"/><path class="cls-2" d="M15.12,9.88a1,1,0,0,1-.71-.29,1,1,0,0,1,0-1.41h0l2.13-2.12A1,1,0,1,1,18,7.46L15.83,9.59A1,1,0,0,1,15.12,9.88Z"/><path class="cls-3" d="M26.34,16.06l-14-5a1,1,0,0,0-1.28,1.28l5,14A1,1,0,0,0,17,27h0a1,1,0,0,0,.93-.73l1.85-6.46L26.27,18A1,1,0,0,0,27,16.76a1,1,0,0,0-.62-.66Z"/><path class="cls-2" d="M26.33,0H5.67A5.67,5.67,0,0,0,0,5.67V26.33A5.67,5.67,0,0,0,5.67,32H26.33A5.67,5.67,0,0,0,32,26.33V5.67A5.67,5.67,0,0,0,26.33,0ZM30,24.33A5.67,5.67,0,0,1,24.33,30H7.67A5.67,5.67,0,0,1,2,24.33V7.67A5.67,5.67,0,0,1,7.67,2H24.33A5.67,5.67,0,0,1,30,7.67Z"/></svg>